<?xml version="1.0" encoding="utf-8"?>
<!-- Generator: Adobe Illustrator 27.5.0, SVG Export Plug-In . SVG Version: 6.00 Build 0)  -->
<svg version="1.1" xmlns="http://www.w3.org/2000/svg" xmlns:xlink="http://www.w3.org/1999/xlink" x="0px" y="0px"
	 viewBox="0 0 3710 3710" style="enable-background:new 0 0 3710 3710;" xml:space="preserve">
<g id="Background">
	<g>
		<g>
			<rect style="fill:#FFFFFF;" width="3710" height="3710"/>
		</g>
	</g>
</g>
<g id="Illustration">
	<g>
		<path style="fill:#F4F7FA;" d="M2586.49,633.587c95.281,133.389-12.489,352.405,127.858,452.002
			c136.617,96.951,301.479-66.055,430.147,17.284c190.873,123.627,162.304,698.81-111.071,1058.872
			c-82.213,108.282-151.412,150.805-180.976,272.601c-63.484,261.526,170.906,414.235,127.969,543.703
			c-96.677,291.515-1627.93,551.386-2252.551-315.083c-291.723-404.677-340.923-992.949-88.815-1442.79
			C1094.61,407.32,2372.695,334.286,2586.49,633.587z"/>
		<g>
			<g style="opacity:0.3;">
				
					<linearGradient id="SVGID_1_" gradientUnits="userSpaceOnUse" x1="1244.826" y1="635.1918" x2="2894.9456" y2="1320.0438" gradientTransform="matrix(0.9999 0.0148 -0.0148 0.9999 70.0906 0.7599)">
					<stop  offset="0" style="stop-color:#FF9085"/>
					<stop  offset="1" style="stop-color:#FB6FBB"/>
				</linearGradient>
				<path style="fill:url(#SVGID_1_);" d="M2242.478,582.379L920.566,541.795c-102.41-3.144-187.361,88.466-189.081,204.636v0.001
					c-1.72,116.17,80.46,211.693,182.891,213.345l1322.197,21.324c92.563,1.492,168.456-86.017,170.077-195.448v0
					C2408.27,676.221,2335.021,585.219,2242.478,582.379z"/>
				
					<linearGradient id="SVGID_00000013194361046614587790000007701052924771425980_" gradientUnits="userSpaceOnUse" x1="1441.449" y1="275.4048" x2="3008.3584" y2="925.7219" gradientTransform="matrix(0.9999 0.0148 -0.0148 0.9999 70.0906 0.7599)">
					<stop  offset="0" style="stop-color:#FF9085"/>
					<stop  offset="1" style="stop-color:#FB6FBB"/>
				</linearGradient>
				<path style="fill:url(#SVGID_00000013194361046614587790000007701052924771425980_);" d="M2809.168,794.091
					c-1.588,107.268-74.896,193.059-164.27,191.611c-89.972-1.458-162.046-90.658-160.438-199.226
					c1.607-108.567,76.273-194.327,166.226-191.566C2740.04,597.654,2810.756,686.823,2809.168,794.091z"/>
			</g>
			<g style="opacity:0.5;">
				
					<linearGradient id="SVGID_00000138568000704377715510000015997254311098703765_" gradientUnits="userSpaceOnUse" x1="2000.4764" y1="1120.7823" x2="3235.3291" y2="1633.2854" gradientTransform="matrix(0.9999 0.0148 -0.0148 0.9999 70.0906 0.7599)">
					<stop  offset="0.0036" style="stop-color:#E38DDD"/>
					<stop  offset="1" style="stop-color:#9571F6"/>
				</linearGradient>
				<path style="fill:url(#SVGID_00000138568000704377715510000015997254311098703765_);" d="M2756.307,1083.805l-995.089-12.553
					c-76.2-0.961-139.347,70.396-140.664,159.383v0.001c-1.318,88.988,59.703,161.196,135.915,161.279l995.259,1.095
					c70.485,0.078,128.372-68.75,129.632-153.729v0C2882.618,1154.301,2826.78,1084.694,2756.307,1083.805z"/>
				
					<linearGradient id="SVGID_00000119800707300812575770000013825901071896291497_" gradientUnits="userSpaceOnUse" x1="2136.8816" y1="830.9131" x2="3334.1416" y2="1327.814" gradientTransform="matrix(0.9999 0.0148 -0.0148 0.9999 70.0906 0.7599)">
					<stop  offset="0.0036" style="stop-color:#E38DDD"/>
					<stop  offset="1" style="stop-color:#9571F6"/>
				</linearGradient>
				<path style="fill:url(#SVGID_00000119800707300812575770000013825901071896291497_);" d="M3189.501,1240.625
					c-1.237,83.576-57.522,151.263-126.035,151.184c-68.869-0.079-123.948-68.534-122.698-152.896
					c1.249-84.363,58.344-152.045,127.202-151.176C3136.47,1088.6,3190.739,1157.05,3189.501,1240.625z"/>
			</g>
		</g>
		<g>
			<g>
				<g>
					<g>
						<g>
							<defs>
								<path id="SVGID_00000057112645719259247200000013916627735041756094_" d="M1341.051,2465.781
									c-12.727,43.934-38.79,105.926-65.952,177.001l746.547-87.787c-138.825-197.419-313.528-397.032-245.696-822.284
									c31.832-199.563,159.267-569.498,16.543-755.419c-162.602-211.817-331.021-56.655-429.956-227.839
									c-154.633-267.556-453.567-402.604-678.956-188.957c-222.45,210.86-75.803,725.193,417.914,1198.891
									C1417.195,2139.343,1407.51,2236.371,1341.051,2465.781z"/>
							</defs>
							
								<linearGradient id="SVGID_00000019680681341569308950000013377018648739823765_" gradientUnits="userSpaceOnUse" x1="2262.2295" y1="3067.4329" x2="115.429" y2="-644.7382">
								<stop  offset="0" style="stop-color:#AA80F9"/>
								<stop  offset="0.9964" style="stop-color:#6165D7"/>
							</linearGradient>
							
								<use xlink:href="#SVGID_00000057112645719259247200000013916627735041756094_"  style="overflow:visible;fill:url(#SVGID_00000019680681341569308950000013377018648739823765_);"/>
							<clipPath id="SVGID_00000131346037812236359990000015751819490228492205_">
								<use xlink:href="#SVGID_00000057112645719259247200000013916627735041756094_"  style="overflow:visible;"/>
							</clipPath>
							<g style="opacity:0.6;clip-path:url(#SVGID_00000131346037812236359990000015751819490228492205_);">
								<g>
									<path style="fill:#FCFDFE;" d="M1655.968,2554.142c-20.007-95.782-43.732-185.107-68.852-279.679l-8.37-31.532
										c-14.902-44.793-28.379-89.364-41.412-132.468c-29.429-97.328-57.227-189.261-100.128-283.284
										c-1.856-5.666-3.377-11.243-4.985-17.151c-5.748-21.096-11.695-42.909-29.53-60.521l-0.513-0.792
										C1213.777,1241.15,917.519,763.947,521.636,330.368l3.221-2.939c396.141,433.862,692.637,911.397,881.243,1419.318
										c18.407,18.383,24.737,41.62,30.326,62.136c1.596,5.854,3.102,11.385,4.838,16.717
										c42.931,94.06,70.77,186.129,100.243,283.603c13.024,43.074,26.493,87.616,41.416,132.482l8.405,31.661
										c25.137,94.628,48.876,184.009,68.907,279.906L1655.968,2554.142z"/>
									<path style="fill:#FCFDFE;" d="M1527.865,2093.658c-70.354-245.041-18.546-572.255,37.304-803.606
										c60.483-250.541,138.596-445.744,139.379-447.685l4.045,1.627c-0.781,1.941-78.795,196.899-139.202,447.141
										c-55.718,230.822-107.422,557.208-37.336,801.321L1527.865,2093.658z"/>
									<path style="fill:#FCFDFE;" d="M1076.761,1067.498c-89.145-255.865-123.448-545.035-134.72-640.059
										c-2.157-18.175-3.582-30.183-4.256-32.41l4.172-1.265c0.756,2.492,1.898,11.967,4.413,33.164
										c11.258,94.907,45.52,383.72,134.508,639.135L1076.761,1067.498z"/>
									<path style="fill:#FCFDFE;" d="M1282.094,1459.882c-148.132-201.394-661.926-277.872-667.098-278.622l0.624-4.314
										c5.19,0.75,520.785,77.506,669.986,280.355L1282.094,1459.882z"/>
								</g>
							</g>
						</g>
					</g>
					<g>
						<g>
							<defs>
								<path id="SVGID_00000148623295171258268190000005740744210705802645_" d="M1114.745,1647.532
									c44.353,342.51,196.492,210.042,353.014,225.954c206.004,234.021,250.379,468.4,11.524,703.405l-298.041-9.39
									c-109.266,7.736-240.688-10.484-250.508-156.035c-11.107-164.616,15.372-273.112-178.803-331.762
									c-194.173-58.652-290.771-195.975-235.584-371.585c58.077-184.802-154.388-399.717-33.281-533.202
									C694.091,942.326,1068.559,1290.876,1114.745,1647.532z"/>
							</defs>
							
								<linearGradient id="SVGID_00000039842732548952779870000012191721622846823071_" gradientUnits="userSpaceOnUse" x1="665.9552" y1="1334.0701" x2="1787.3448" y2="3180.1663">
								<stop  offset="0.0036" style="stop-color:#E38DDD"/>
								<stop  offset="1" style="stop-color:#9571F6"/>
							</linearGradient>
							
								<use xlink:href="#SVGID_00000148623295171258268190000005740744210705802645_"  style="overflow:visible;fill:url(#SVGID_00000039842732548952779870000012191721622846823071_);"/>
							<clipPath id="SVGID_00000181781363969929515020000011765677537257149343_">
								<use xlink:href="#SVGID_00000148623295171258268190000005740744210705802645_"  style="overflow:visible;"/>
							</clipPath>
							<g style="opacity:0.6;clip-path:url(#SVGID_00000181781363969929515020000011765677537257149343_);">
								<g>
									<path style="fill:#FCFDFE;" d="M1259.635,2252.774c-138.013-119.399-261.44-255.6-366.854-404.82
										c-106.32-150.509-192.893-312.265-257.307-480.781c-36.936-96.628-66.676-196.005-88.389-295.369l4.356-0.95
										c21.67,99.142,51.343,198.303,88.201,294.727c64.28,168.166,150.674,329.594,256.784,479.798
										c105.205,148.926,228.389,284.859,366.127,404.021L1259.635,2252.774z"/>
									<path style="fill:#FCFDFE;" d="M966.546,2478.223l-2.475-3.713c51.139-34.107,112.765-63.263,183.169-86.656
										c33.548-11.148,67.152-19.854,99.881-25.874l0.809,4.388c-32.527,5.981-65.931,14.635-99.28,25.721
										C1078.619,2415.356,1017.353,2444.336,966.546,2478.223z"/>
									<path style="fill:#FCFDFE;" d="M961.305,1939.11c-168.444-128.516-488.815-77.288-492.022-76.736l-0.729-4.403
										c3.245-0.526,325.476-52.101,495.458,77.593L961.305,1939.11z"/>
									<path style="fill:#FCFDFE;" d="M729.914,1579.218c-72.714-228.076,70.494-518.362,71.949-521.266l3.988,1.997
										c-1.446,2.89-143.844,291.583-71.685,517.915L729.914,1579.218z"/>
								</g>
							</g>
						</g>
					</g>
				</g>
			</g>
		</g>
		<g>
			<g>
				<path style="fill:#97A6B7;" d="M3219.218,3001.835l-2687.861-23.409v69.264c0,18.799,11.724,34.785,27.601,37.634
					l760.047,136.394c9.02,1.619,18.167,2.048,27.269,1.28l1843.735-155.512c16.46-1.388,29.209-17.423,29.209-36.739V3001.835z"/>
				<g>
					<path style="fill:#97A6B7;" d="M2353.961,2889.554L560.94,3016.265c-32.085,2.267-58.172-21.825-58.172-53.819V1680.648
						c0-31.994,26.087-57.931,58.172-57.931h1793.021c26.433,0,47.805,23.446,47.805,52.368v1158.722
						C2401.767,2862.729,2380.395,2887.686,2353.961,2889.554z"/>
					<path style="fill:#97A6B7;" d="M2382.551,2889.554L589.53,3016.265c-32.086,2.267-58.173-21.825-58.173-53.819V1680.648
						c0-31.994,26.087-57.931,58.173-57.931h1793.021c26.434,0,47.805,23.446,47.805,52.368v1158.722
						C2430.356,2862.729,2408.985,2887.686,2382.551,2889.554z"/>
					<path style="fill:#FFFFFF;" d="M2326.693,2807.862L656.681,2917.928c-26.11,1.72-47.328-18.054-47.328-44.173V1751.539
						c0-26.118,21.218-47.38,47.328-47.488l1670.012-6.911c21.806-0.09,39.444,19.122,39.444,42.912v1022.137
						C2366.137,2785.977,2348.499,2806.425,2326.693,2807.862z"/>
					<path style="fill:#FFFFFF;" d="M1549.365,1657.778c0,11.91-9.229,21.593-20.625,21.627c-11.41,0.035-20.67-9.614-20.67-21.55
						c0-11.937,9.26-21.621,20.67-21.629C1540.136,1636.218,1549.365,1645.867,1549.365,1657.778z"/>
					<path style="opacity:0.48;fill:#FFFFFF;" d="M1950.551,2538.001c-138.226-74.372-246.913,19.866-351.802-73.115
						c-63.592-56.371-32.371-98.407-110.619-182.647c-86.665-93.302-143.089-61.939-230.186-145.912
						c-110.129-106.178-55.048-188.788-149.911-265.02c-115.081-92.482-239.19-6.884-348.739-95.577
						c-47.249-38.253-73.174-93.867-86.712-153.013H565.394c-18.783,0-34.036,15.223-34.036,34.003v1328.694
						c0,18.78,15.254,32.921,34.036,31.588l1827.383-129.712c8.968-0.636,16.92-5.873,22.023-13.463
						c-133.77-4.875-215.951-49.719-268.484-96.077C2043.548,2687.061,2061.373,2597.627,1950.551,2538.001z"/>
				</g>
				<path style="fill:#D8DEE8;" d="M2337.811,2883.807L531.357,3017.183l787.648,141.346c9.02,1.619,18.167,2.049,27.269,1.281
					l1872.944-157.975l-852.671-117.121C2357.011,2883.404,2347.394,2883.1,2337.811,2883.807z"/>
				<polygon style="opacity:0.3;fill:#D8DEE8;" points="794.947,3020.537 2298.874,2907.844 2764.326,2971.262 1273.354,3091.727 
									"/>
			</g>
			<g>
				<polygon style="fill:#D8DEE8;" points="2322.126,2016.228 651.941,2041.684 651.941,1738.093 2322.126,1738.093 				"/>
				<polygon style="fill:#D8DEE8;" points="1792.53,2557.741 734.383,2603.926 734.383,2094.548 1792.53,2075.534 				"/>
				<polygon style="fill:#D8DEE8;" points="2252.377,2208.391 1854.351,2218.609 1854.351,2074.423 2252.377,2067.271 				"/>
				<polygon style="fill:#D8DEE8;" points="2252.377,2537.67 1854.351,2555.042 1854.351,2269.675 2252.377,2258.37 				"/>
				<polygon style="fill:#D8DEE8;" points="2252.377,2602.349 734.383,2673.966 734.383,2794.943 2252.377,2714.069 				"/>
			</g>
		</g>
		<g>
			<g>
				<g>
					
						<linearGradient id="SVGID_00000102535726065040404230000010605141053043194496_" gradientUnits="userSpaceOnUse" x1="1497.0374" y1="2669.0762" x2="2900.877" y2="962.9482">
						<stop  offset="0" style="stop-color:#FF9085"/>
						<stop  offset="1" style="stop-color:#FB6FBB"/>
					</linearGradient>
					<path style="fill:url(#SVGID_00000102535726065040404230000010605141053043194496_);" d="M1232.554,3013.507
						c27.628,36.252,20.419,91.633-16.135,123.51c-36.618,31.932-89.012,28.362-116.734-8.013
						c-27.724-36.379-20.359-91.895,16.352-123.705C1152.683,2973.543,1204.921,2977.248,1232.554,3013.507z M1128.268,3104.158
						c15.814,20.751,45.707,22.804,66.614,4.598c20.889-18.192,25.024-49.826,9.24-70.536
						c-15.786-20.715-45.629-22.814-66.549-4.663C1116.636,3051.726,1112.45,3083.404,1128.268,3104.158z"/>
					
						<linearGradient id="SVGID_00000077310835020439513510000016135628864900939940_" gradientUnits="userSpaceOnUse" x1="1205.0391" y1="2428.8145" x2="2608.8833" y2="722.6811">
						<stop  offset="0" style="stop-color:#FF9085"/>
						<stop  offset="1" style="stop-color:#FB6FBB"/>
					</linearGradient>
					<path style="fill:url(#SVGID_00000077310835020439513510000016135628864900939940_);" d="M1054.537,2635.666
						c27.591,36.204,20.255,91.233-16.413,122.721c-36.739,31.552-89.196,27.711-116.881-8.616
						c-27.681-36.322-20.189-91.482,16.643-122.912C974.646,2595.491,1026.948,2599.465,1054.537,2635.666z M949.915,2725.226
						c15.795,20.725,45.724,22.934,66.703,4.942c20.952-17.968,25.161-49.4,9.397-70.085c-15.762-20.681-45.64-22.933-66.622-5.004
						C938.383,2673.03,934.124,2704.506,949.915,2725.226z"/>
					
						<linearGradient id="SVGID_00000135660813670291009260000010281108967477434547_" gradientUnits="userSpaceOnUse" x1="869.1823" y1="2152.4651" x2="2273.0181" y2="446.3417">
						<stop  offset="0" style="stop-color:#FF9085"/>
						<stop  offset="1" style="stop-color:#FB6FBB"/>
					</linearGradient>
					<path style="fill:url(#SVGID_00000135660813670291009260000010281108967477434547_);" d="M595.241,2510.627
						c27.745,36.406,20.021,91.644-17.278,123.193c-37.373,31.613-90.471,27.655-118.31-8.875
						c-27.838-36.528-19.956-91.9,17.511-123.389C514.557,2470.131,567.495,2474.221,595.241,2510.627z M488.819,2600.354
						c15.883,20.84,46.177,23.115,67.518,5.091c21.313-18.002,25.743-49.556,9.89-70.357c-15.85-20.798-46.094-23.117-67.438-5.155
						C477.418,2547.918,472.937,2579.515,488.819,2600.354z"/>
					
						<linearGradient id="SVGID_00000056389732440962846180000012374430935976173752_" gradientUnits="userSpaceOnUse" x1="913.8831" y1="2189.2449" x2="2317.7231" y2="483.1165">
						<stop  offset="0" style="stop-color:#FF9085"/>
						<stop  offset="1" style="stop-color:#FB6FBB"/>
					</linearGradient>
					<path style="fill:url(#SVGID_00000056389732440962846180000012374430935976173752_);" d="M973.103,2142.106
						c27.464,36.037,20.099,90.447-16.478,121.34c-36.65,30.954-88.93,26.758-116.487-9.401
						c-27.56-36.163-20.042-90.702,16.701-121.535C893.508,2101.738,945.635,2106.063,973.103,2142.106z M868.74,2229.965
						c15.72,20.628,45.55,23.039,66.476,5.388c20.901-17.627,25.124-48.706,9.434-69.293c-15.694-20.593-45.472-23.047-66.402-5.458
						C857.292,2178.213,853.018,2209.334,868.74,2229.965z"/>
					<g>
						
							<linearGradient id="SVGID_00000072244164330521766810000003055749126519646119_" gradientUnits="userSpaceOnUse" x1="1440.6998" y1="2622.7217" x2="2844.5422" y2="916.5903">
							<stop  offset="0" style="stop-color:#FF9085"/>
							<stop  offset="1" style="stop-color:#FB6FBB"/>
						</linearGradient>
						<polygon style="fill:url(#SVGID_00000072244164330521766810000003055749126519646119_);" points="1560.93,2439.38 
							1582.185,2467.269 1355.567,2662.905 1206.898,3026.758 1174.26,3014.072 1326.896,2641.142 						"/>
						
							<linearGradient id="SVGID_00000065762853030797762890000011689067691767933861_" gradientUnits="userSpaceOnUse" x1="1242.8553" y1="2459.9309" x2="2646.6946" y2="753.8035">
							<stop  offset="0" style="stop-color:#FF9085"/>
							<stop  offset="1" style="stop-color:#FB6FBB"/>
						</linearGradient>
						<polygon style="fill:url(#SVGID_00000065762853030797762890000011689067691767933861_);" points="1434.806,2273.884 
							1456.061,2301.774 1044.863,2653.883 1023.386,2625.701 						"/>
						
							<linearGradient id="SVGID_00000052065789520012731900000000155347794620225436_" gradientUnits="userSpaceOnUse" x1="1000.7519" y1="2260.7224" x2="2404.5925" y2="554.5933">
							<stop  offset="0" style="stop-color:#FF9085"/>
							<stop  offset="1" style="stop-color:#FB6FBB"/>
						</linearGradient>
						<polygon style="fill:url(#SVGID_00000052065789520012731900000000155347794620225436_);" points="1308.678,2108.384 
							1329.933,2136.274 1059.317,2366.123 740.273,2411.532 591.538,2537.022 569.941,2508.684 727.243,2376.15 1046.288,2330.94 
													"/>
						
							<linearGradient id="SVGID_00000018205829378961136670000004352633654367185044_" gradientUnits="userSpaceOnUse" x1="944.4662" y1="2214.4097" x2="2348.3071" y2="508.2803">
							<stop  offset="0" style="stop-color:#FF9085"/>
							<stop  offset="1" style="stop-color:#FB6FBB"/>
						</linearGradient>
						<polygon style="fill:url(#SVGID_00000018205829378961136670000004352633654367185044_);" points="1182.551,1942.883 
							1203.806,1970.773 964.993,2171.962 943.609,2143.904 						"/>
					</g>
				</g>
				<g>
					
						<linearGradient id="SVGID_00000170976696005369261280000011337734237216616577_" gradientUnits="userSpaceOnUse" x1="1085.8403" y1="2330.7417" x2="2489.6772" y2="624.6171">
						<stop  offset="0" style="stop-color:#FF9085"/>
						<stop  offset="1" style="stop-color:#FB6FBB"/>
					</linearGradient>
					<path style="fill:url(#SVGID_00000170976696005369261280000011337734237216616577_);" d="M2483.091,609.589
						c-26.272-34.473-20.351-85.248,13.149-113.147c33.439-27.846,81.904-22.507,108.092,11.857
						c26.191,34.368,20.405,85.029-12.949,112.986C2557.967,649.294,2509.366,644.067,2483.091,609.589z M2578.385,529.976
						c-14.961-19.631-42.648-22.666-61.733-6.749c-19.109,15.935-22.472,44.91-7.485,64.576
						c14.991,19.671,42.72,22.668,61.802,6.697C2590.029,578.549,2593.348,549.61,2578.385,529.976z"/>
					
						<linearGradient id="SVGID_00000008865447627928362090000014321525356243504015_" gradientUnits="userSpaceOnUse" x1="1365.5399" y1="2560.8665" x2="2769.3757" y2="854.7432">
						<stop  offset="0" style="stop-color:#FF9085"/>
						<stop  offset="1" style="stop-color:#FB6FBB"/>
					</linearGradient>
					<path style="fill:url(#SVGID_00000008865447627928362090000014321525356243504015_);" d="M2660.119,965.363
						c-26.311-34.524-20.509-85.616,12.876-113.851c33.332-28.19,81.738-23.088,107.966,11.326
						c26.224,34.411,20.557,85.389-12.692,113.688C2734.967,1004.871,2686.427,999.884,2660.119,965.363z M2755.098,884.78
						c-14.984-19.662-42.635-22.561-61.662-6.447c-19.04,16.125-22.336,45.28-7.325,64.978
						c15.008,19.693,42.704,22.555,61.717,6.393C2766.828,933.554,2770.079,904.438,2755.098,884.78z"/>
					
						<linearGradient id="SVGID_00000084487663106728772550000002033299932469897138_" gradientUnits="userSpaceOnUse" x1="1680.3757" y1="2819.9373" x2="3084.2151" y2="1113.8096">
						<stop  offset="0" style="stop-color:#FF9085"/>
						<stop  offset="1" style="stop-color:#FB6FBB"/>
					</linearGradient>
					<path style="fill:url(#SVGID_00000084487663106728772550000002033299932469897138_);" d="M3084.449,1092.491
						c-26.173-34.343-20.705-85.259,12.136-113.457c32.788-28.154,80.64-23.17,106.729,11.065
						c26.091,34.235,20.754,85.037-11.951,113.299C3158.606,1131.706,3110.623,1126.836,3084.449,1092.491z M3177.875,1012.013
						c-14.906-19.559-42.24-22.391-60.957-6.298c-18.731,16.105-21.836,45.16-6.904,64.754c14.933,19.595,42.311,22.39,61.015,6.248
						C3189.718,1060.589,3192.781,1031.572,3177.875,1012.013z"/>
					
						<linearGradient id="SVGID_00000008854267728379681870000009113251977006081665_" gradientUnits="userSpaceOnUse" x1="1645.5093" y1="2791.2395" x2="3049.3472" y2="1085.1135">
						<stop  offset="0" style="stop-color:#FF9085"/>
						<stop  offset="1" style="stop-color:#FB6FBB"/>
					</linearGradient>
					<path style="fill:url(#SVGID_00000008854267728379681870000009113251977006081665_);" d="M2745.847,1432.612
						c-26.421-34.669-20.656-86.317,12.799-115.087c33.402-28.721,81.953-23.933,108.291,10.626
						c26.34,34.562,20.71,86.094-12.606,114.928C2820.959,1471.959,2772.272,1467.287,2745.847,1432.612z M2841.022,1350.506
						c-15.045-19.741-42.781-22.461-61.847-6.044c-19.08,16.431-22.354,45.903-7.281,65.681
						c15.077,19.784,42.855,22.465,61.908,5.999C2852.84,1399.688,2856.072,1370.254,2841.022,1350.506z"/>
					<g>
						
							<linearGradient id="SVGID_00000078028163318748737390000012463908231721727417_" gradientUnits="userSpaceOnUse" x1="1141.2313" y1="2376.3135" x2="2545.073" y2="670.1829">
							<stop  offset="0" style="stop-color:#FF9085"/>
							<stop  offset="1" style="stop-color:#FB6FBB"/>
						</linearGradient>
						<polygon style="fill:url(#SVGID_00000078028163318748737390000012463908231721727417_);" points="2184.218,1139.228 
							2163.546,1112.102 2377.662,931.968 2511.854,597.732 2542.352,610.601 2405.024,953.212 						"/>
						
							<linearGradient id="SVGID_00000026155758275919911220000014841339246575264442_" gradientUnits="userSpaceOnUse" x1="1329.8192" y1="2531.4883" x2="2733.6604" y2="825.3585">
							<stop  offset="0" style="stop-color:#FF9085"/>
							<stop  offset="1" style="stop-color:#FB6FBB"/>
						</linearGradient>
						<polygon style="fill:url(#SVGID_00000026155758275919911220000014841339246575264442_);" points="2306.887,1300.19 
							2286.215,1273.064 2668.752,948.602 2689.218,975.458 						"/>
						
							<linearGradient id="SVGID_00000044867856183354556750000015630103342918300860_" gradientUnits="userSpaceOnUse" x1="1559.85" y1="2720.7646" x2="2963.6892" y2="1014.6371">
							<stop  offset="0" style="stop-color:#FF9085"/>
							<stop  offset="1" style="stop-color:#FB6FBB"/>
						</linearGradient>
						<polygon style="fill:url(#SVGID_00000044867856183354556750000015630103342918300860_);" points="2429.559,1461.156 
							2408.887,1434.031 2660.785,1218.628 2954.97,1181.822 3087.058,1068.119 3107.417,1094.834 2967.817,1215.168 
							2673.637,1252.153 						"/>
						
							<linearGradient id="SVGID_00000034072100910001272590000004302569481690192000_" gradientUnits="userSpaceOnUse" x1="1618.8386" y1="2769.3003" x2="3022.6809" y2="1063.1693">
							<stop  offset="0" style="stop-color:#FF9085"/>
							<stop  offset="1" style="stop-color:#FB6FBB"/>
						</linearGradient>
						<polygon style="fill:url(#SVGID_00000034072100910001272590000004302569481690192000_);" points="2552.232,1622.123 
							2531.56,1594.997 2752.79,1404.273 2773.343,1431.243 						"/>
					</g>
				</g>
			</g>
			<g>
				
					<linearGradient id="SVGID_00000098924033822952511850000016982896075937893549_" gradientUnits="userSpaceOnUse" x1="1526.8379" y1="1835.7644" x2="573.3391" y2="2141.771">
					<stop  offset="0" style="stop-color:#FCB148"/>
					<stop  offset="0.0521" style="stop-color:#FDBA46"/>
					<stop  offset="0.1424" style="stop-color:#FFC244"/>
					<stop  offset="0.3183" style="stop-color:#FFC444"/>
					<stop  offset="0.4849" style="stop-color:#FDB946"/>
					<stop  offset="0.7754" style="stop-color:#F99C4D"/>
					<stop  offset="0.8658" style="stop-color:#F8924F"/>
					<stop  offset="1" style="stop-color:#F8924F"/>
				</linearGradient>
				<path style="fill:url(#SVGID_00000098924033822952511850000016982896075937893549_);" d="M2624.518,1801.167
					c0,442.34-345.883,790.306-787.961,776.731c-460.071-14.128-847.007-411.469-847.007-886.957
					c0-475.486,386.935-820.655,847.007-772.749C2278.635,964.224,2624.518,1358.826,2624.518,1801.167z"/>
				
					<linearGradient id="SVGID_00000021112981204177158400000006776493331762175641_" gradientUnits="userSpaceOnUse" x1="2298.1628" y1="886.6517" x2="1446.9376" y2="2764.6135">
					<stop  offset="0" style="stop-color:#FFDB44"/>
					<stop  offset="1" style="stop-color:#FEEF06"/>
				</linearGradient>
				<path style="fill:url(#SVGID_00000021112981204177158400000006776493331762175641_);" d="M2743.976,1763.026
					c0,442.34-345.884,790.306-787.961,776.73c-460.072-14.128-847.009-411.468-847.009-886.955
					c0-475.488,386.937-820.655,847.009-772.75C2398.092,926.083,2743.976,1320.686,2743.976,1763.026z"/>
				
					<linearGradient id="SVGID_00000146490166667605724710000017809381025947761596_" gradientUnits="userSpaceOnUse" x1="2141.5796" y1="2869.574" x2="1977.3339" y2="1972.3054">
					<stop  offset="0" style="stop-color:#FCB148"/>
					<stop  offset="0.0521" style="stop-color:#FDBA46"/>
					<stop  offset="0.1424" style="stop-color:#FFC244"/>
					<stop  offset="0.3183" style="stop-color:#FFC444"/>
					<stop  offset="0.4849" style="stop-color:#FDB946"/>
					<stop  offset="0.7754" style="stop-color:#F99C4D"/>
					<stop  offset="0.8658" style="stop-color:#F8924F"/>
					<stop  offset="1" style="stop-color:#F8924F"/>
				</linearGradient>
				<path style="fill:url(#SVGID_00000146490166667605724710000017809381025947761596_);" d="M2709.277,1760.686
					c0,422.861-330.946,754.942-753.262,741.268c-438.707-14.206-807.046-393.405-807.046-846.459s368.339-782.588,807.046-737.641
					C2378.331,961.122,2709.277,1337.825,2709.277,1760.686z"/>
				
					<linearGradient id="SVGID_00000021832544618085242070000010048383726727413159_" gradientUnits="userSpaceOnUse" x1="1793.3475" y1="1417.2457" x2="2470.2258" y2="2854.1294">
					<stop  offset="0" style="stop-color:#FCB148"/>
					<stop  offset="0.0521" style="stop-color:#FDBA46"/>
					<stop  offset="0.1424" style="stop-color:#FFC244"/>
					<stop  offset="0.3183" style="stop-color:#FFC444"/>
					<stop  offset="0.4849" style="stop-color:#FDB946"/>
					<stop  offset="0.7754" style="stop-color:#F99C4D"/>
					<stop  offset="0.8658" style="stop-color:#F8924F"/>
					<stop  offset="1" style="stop-color:#F8924F"/>
				</linearGradient>
				<path style="fill:url(#SVGID_00000021832544618085242070000010048383726727413159_);" d="M2684.426,1759.011
					c0,408.91-320.232,729.645-728.41,715.941c-423.471-14.218-778.586-380.462-778.586-817.538
					c0-437.077,355.115-755.439,778.586-712.559C2364.194,986.188,2684.426,1350.102,2684.426,1759.011z"/>
				
					<linearGradient id="SVGID_00000054974046843403258100000000438357403870009000_" gradientUnits="userSpaceOnUse" x1="1638.9572" y1="1697.1393" x2="2259.0564" y2="1697.1393">
					<stop  offset="0" style="stop-color:#FFDB44"/>
					<stop  offset="1" style="stop-color:#FEEF06"/>
				</linearGradient>
				<path style="fill:url(#SVGID_00000054974046843403258100000000438357403870009000_);" d="M2225.414,1748.963
					c-22.558-26.926-57.585-46.493-105.349-58.711c21.949-8.358,40.657-18.254,56.173-29.688
					c15.46-11.396,28.092-23.896,37.911-37.521c9.797-13.588,16.965-28.215,21.53-43.894c4.552-15.658,6.83-31.943,6.83-48.866
					c0-31.079-4.961-59.336-14.893-84.818c-9.959-25.527-25.912-47.489-47.917-65.893c-22.115-18.488-50.813-33.273-86.204-44.364
					c-11.789-3.691-24.519-6.833-38.035-9.523v-123.688l-94.498-4.747v118.147l-79.884-3.065v-119.096l-97.888-4.918v120.258
					l-105.203-4.036l-39.03-1.498v65.892l39.03,1.247v667.483l-39.03,1.299v65.892l39.03-1.549l105.203-4.176v106.833l97.888-4.918
					v-105.801l79.884-3.171v104.958l94.498-4.747v-109.412c17.378-3.592,33.772-8.248,49.082-14.098
					c33.988-12.978,62.374-30.202,85.27-51.667c22.78-21.354,40.005-46.003,51.722-73.968c11.69-27.889,17.523-57.843,17.523-89.903
					C2259.056,1810.495,2247.869,1775.762,2225.414,1748.963z M2074.859,1548.467c0,18.625-2.776,34.047-8.332,46.287
					c-5.564,12.26-13.667,21.866-24.323,28.825c-10.678,6.983-23.676,11.839-39.012,14.572c-15.383,2.75-32.706,4.066-51.981,3.959
					l-91.899-0.508v-193.863l103.266,2.562c19.578,0.486,36.427,2.497,50.586,6.027c14.112,3.52,25.737,9.088,34.879,16.701
					c9.123,7.598,15.868,17.506,20.252,29.725C2072.667,1514.964,2074.859,1530.205,2074.859,1548.467z M2089.471,1888.602
					c-3.019,11.992-8.559,22.812-16.63,32.474c-8.083,9.68-19.307,17.695-33.685,24.038c-14.427,6.371-33.069,9.851-55.971,10.447
					l-123.873,3.225v-195.48l122.844-0.809c21.882-0.144,39.942,1.856,54.203,5.993c14.219,4.123,25.615,10.021,34.208,17.677
					c8.578,7.649,14.625,17.066,18.148,28.251c3.521,11.187,5.28,23.785,5.28,37.805
					C2093.997,1864.501,2092.489,1876.624,2089.471,1888.602z"/>
				
					<linearGradient id="SVGID_00000054265289664587103860000018263383937333645733_" gradientUnits="userSpaceOnUse" x1="1594.212" y1="1510.2338" x2="2269.7249" y2="2944.2185">
					<stop  offset="0" style="stop-color:#FCB148"/>
					<stop  offset="0.0521" style="stop-color:#FDBA46"/>
					<stop  offset="0.1424" style="stop-color:#FFC244"/>
					<stop  offset="0.3183" style="stop-color:#FFC444"/>
					<stop  offset="0.4849" style="stop-color:#FDB946"/>
					<stop  offset="0.7754" style="stop-color:#F99C4D"/>
					<stop  offset="0.8658" style="stop-color:#F8924F"/>
					<stop  offset="1" style="stop-color:#F8924F"/>
				</linearGradient>
				<path style="opacity:0.3;fill:url(#SVGID_00000054265289664587103860000018263383937333645733_);" d="M1824.2,1859.146
					c24.61-243.068,248-345.967,218.848-569.552c-17.968-137.804-122.416-253.939-238.931-344.616
					c-353.408,37.064-626.688,329.695-626.688,712.437c0,437.078,355.115,803.32,778.586,817.538
					c41.116,1.38,81.272-0.757,120.319-5.875C1908.156,2301.727,1803.058,2067.972,1824.2,1859.146z"/>
			</g>
		</g>
		<g>
			
				<linearGradient id="SVGID_00000067920611574320564640000009809699791077808819_" gradientUnits="userSpaceOnUse" x1="5159.4077" y1="3683.7217" x2="5208.4648" y2="3727.3579" gradientTransform="matrix(0.9902 -0.14 0.14 0.9902 -2711.9221 206.9384)">
				<stop  offset="0" style="stop-color:#444B8C"/>
				<stop  offset="0.9964" style="stop-color:#26264F"/>
			</linearGradient>
			<path style="fill:url(#SVGID_00000067920611574320564640000009809699791077808819_);" d="M2926.439,3154.438
				c1.396-7.69,26.232-14.652,38.529-4.35c6.107,5.115,10.312,15.482,6.779,20.165c-1.286,1.703,3.979,4.699-1.065,4.758
				C2953.951,3175.205,2925.05,3162.08,2926.439,3154.438z"/>
			
				<linearGradient id="SVGID_00000013183399129530826860000007276848426976685961_" gradientUnits="userSpaceOnUse" x1="4977.6694" y1="3453.4749" x2="4977.6694" y2="3368.0137" gradientTransform="matrix(0.9988 0.0498 -0.0498 0.9988 -1835.4758 -528.7908)">
				<stop  offset="0" style="stop-color:#FFC444"/>
				<stop  offset="0.9964" style="stop-color:#F36F56"/>
			</linearGradient>
			<path style="fill:url(#SVGID_00000013183399129530826860000007276848426976685961_);" d="M2953.596,3154.479l25.765,1.285
				c-8.926-16.228,1.806-60.366,1.806-60.366l-27.821,0.817c0,0,0.685,12.814,2.381,31.848
				C2956.308,3134.579,2955.237,3144.395,2953.596,3154.479z"/>
			
				<linearGradient id="SVGID_00000163040245338684776220000001577444378931874475_" gradientUnits="userSpaceOnUse" x1="5164.3403" y1="3678.1792" x2="5213.3965" y2="3721.8145" gradientTransform="matrix(0.9902 -0.14 0.14 0.9902 -2711.9221 206.9384)">
				<stop  offset="0" style="stop-color:#444B8C"/>
				<stop  offset="0.9964" style="stop-color:#26264F"/>
			</linearGradient>
			<path style="fill:url(#SVGID_00000163040245338684776220000001577444378931874475_);" d="M2950.205,3154.091
				c0,0,30.751-7.085,34.077-0.986c3.327,6.1,5.909,22.433-13.601,21.906C2951.17,3174.484,2948.472,3159.263,2950.205,3154.091z"/>
			
				<linearGradient id="SVGID_00000181045967016219516220000000722173011605723789_" gradientUnits="userSpaceOnUse" x1="5198.8384" y1="3186.3108" x2="5247.897" y2="3229.9485" gradientTransform="matrix(1 0 0 1 -2609.0793 0)">
				<stop  offset="0" style="stop-color:#444B8C"/>
				<stop  offset="0.9964" style="stop-color:#26264F"/>
			</linearGradient>
			<path style="fill:url(#SVGID_00000181045967016219516220000000722173011605723789_);" d="M2600.309,3210.219
				c2.459-7.418,28.025-10.835,38.76,1.085c5.329,5.918,8.042,16.772,3.888,20.914c-1.511,1.508,3.281,5.212-1.721,4.564
				C2624.644,3234.634,2597.865,3217.591,2600.309,3210.219z"/>
			
				<linearGradient id="SVGID_00000075868670015098320840000002053570737640481458_" gradientUnits="userSpaceOnUse" x1="5001.0903" y1="2905.8374" x2="5001.0903" y2="2820.374" gradientTransform="matrix(0.9813 0.1926 -0.1926 0.9813 -1708.8574 -582.0115)">
				<stop  offset="0" style="stop-color:#FFC444"/>
				<stop  offset="0.9964" style="stop-color:#F36F56"/>
			</linearGradient>
			<path style="fill:url(#SVGID_00000075868670015098320840000002053570737640481458_);" d="M2630.521,3217.365l25.312,4.967
				c-6.505-17.341,10.448-59.482,10.448-59.482l-27.649-3.184c0,0-1.162,12.781-2.212,31.861
				C2636.058,3198.06,2633.59,3207.621,2630.521,3217.365z"/>
			
				<linearGradient id="SVGID_00000057829764523405459240000012714239054388177315_" gradientUnits="userSpaceOnUse" x1="5203.77" y1="3180.7673" x2="5252.8281" y2="3224.4048" gradientTransform="matrix(1 0 0 1 -2609.0793 0)">
				<stop  offset="0" style="stop-color:#444B8C"/>
				<stop  offset="0.9964" style="stop-color:#26264F"/>
			</linearGradient>
			<path style="fill:url(#SVGID_00000057829764523405459240000012714239054388177315_);" d="M2623.889,3213.201
				c0,0,31.441-2.711,33.88,3.795c2.44,6.504,2.711,23.037-16.534,19.785C2621.992,3233.53,2621.449,3218.08,2623.889,3213.201z"/>
			
				<linearGradient id="SVGID_00000125600998542340831870000003565879432710372498_" gradientUnits="userSpaceOnUse" x1="2856.4453" y1="2714.0933" x2="3059.1572" y2="2714.0933">
				<stop  offset="0" style="stop-color:#311944"/>
				<stop  offset="1" style="stop-color:#6B3976"/>
			</linearGradient>
			<path style="fill:url(#SVGID_00000125600998542340831870000003565879432710372498_);" d="M2856.445,2326.393
				c6.895,117.878,16.548,240.458,29.552,367.315c15.064,146.963,33.365,287.385,53.887,420.843c25.296,8.674,48.673,0,48.673,0
				s29.577-48.444,52.149-177.197c14.482-82.613,15.481-81.571,15.645-95.981c0.818-72.706-24.688-93.755-29.551-158.739
				c-4.499-60.125,14.639-78.132,26.074-145.818c8.793-52.049,12.09-127.9-15.644-227.033
				C2976.968,2315.318,2916.707,2320.856,2856.445,2326.393z"/>
			
				<linearGradient id="SVGID_00000134953119297412742820000006856933388414972289_" gradientUnits="userSpaceOnUse" x1="2856.4453" y1="2714.0933" x2="3042.6467" y2="2714.0933">
				<stop  offset="0" style="stop-color:#311944"/>
				<stop  offset="1" style="stop-color:#6B3976"/>
			</linearGradient>
			<path style="opacity:0.3;fill:url(#SVGID_00000134953119297412742820000006856933388414972289_);" d="M2856.445,2326.394
				c6.895,117.878,16.548,240.458,29.552,367.314c15.064,146.963,33.365,287.385,53.887,420.843c25.295,8.674,48.672,0,48.672,0
				c-0.321-12.354-1.183-30.968-3.763-53.453c-6.843-59.641-17.749-76.611-18.868-113.21c-1.431-46.806,15.515-48.247,18.868-94.341
				c5.197-71.445-34.033-88.388-37.736-150.946c-3.914-66.099,37.474-87.851,69.183-169.814
				c18.718-48.384,35.331-121.027,20.989-223.006C2976.968,2315.318,2916.707,2320.856,2856.445,2326.394z"/>
			
				<linearGradient id="SVGID_00000053509238368286884390000007786536932893922701_" gradientUnits="userSpaceOnUse" x1="3231.4387" y1="2852.834" x2="2673.7793" y2="2752.2039">
				<stop  offset="0" style="stop-color:#311944"/>
				<stop  offset="0.7407" style="stop-color:#5C3169"/>
				<stop  offset="1" style="stop-color:#6B3976"/>
			</linearGradient>
			<path style="fill:url(#SVGID_00000053509238368286884390000007786536932893922701_);" d="M2729.55,2322.702
				c-34.635,116.674-68.203,261.597-86.914,430.071c-18.16,163.507-17.83,308.712-10.43,428.226
				c11.01,3.076,22.019,6.153,33.027,9.229c64.017-66.979,86.873-128.542,95.607-173.505c12.919-66.512-6.548-89.065,10.429-164.277
				c3.905-17.302,9.4-35.885,73.008-160.584c60.709-119.016,73.157-136.302,83.438-179.042
				c14.677-61.008,10.805-115.114,5.215-151.356C2865.138,2348.544,2797.344,2335.623,2729.55,2322.702z"/>
			<g>
				<path style="fill:#26264F;" d="M2456.566,2070.527l-108.633-254.47c-5.428-12.714,1.861-27.258,15.294-30.521l198.992-48.327
					c10.755-2.611,21.802,3.034,25.987,13.279l99.919,244.576c4.976,12.18-1.583,26.002-14.163,29.851l-190.277,58.219
					C2472.752,2086.481,2461.056,2081.043,2456.566,2070.527z"/>
				
					<linearGradient id="SVGID_00000019664404504490450730000008741232095977515422_" gradientUnits="userSpaceOnUse" x1="2542.7229" y1="1915.7012" x2="2287.8252" y2="1825.2533">
					<stop  offset="0" style="stop-color:#AA80F9"/>
					<stop  offset="0.9964" style="stop-color:#6165D7"/>
				</linearGradient>
				<path style="fill:url(#SVGID_00000019664404504490450730000008741232095977515422_);" d="M2461.484,2058.288l-101.472-237.694
					c-5.069-11.874,1.738-25.46,14.286-28.508l185.872-45.14c10.045-2.44,20.364,2.832,24.274,12.402l93.331,228.452
					c4.647,11.376-1.477,24.286-13.229,27.883l-177.732,54.381C2476.602,2073.19,2465.677,2068.11,2461.484,2058.288z"/>
			</g>
			
				<linearGradient id="SVGID_00000089574755394007571840000008878565061926274713_" gradientUnits="userSpaceOnUse" x1="2380.7627" y1="1906.1158" x2="2569.3542" y2="2209.0667">
				<stop  offset="0" style="stop-color:#FFC444"/>
				<stop  offset="0.9964" style="stop-color:#F36F56"/>
			</linearGradient>
			<path style="fill:url(#SVGID_00000089574755394007571840000008878565061926274713_);" d="M2398.84,1988.414l-3.26-29.985
				l-17.277-32.936c-2.354-4.485-3.582-9.474-3.582-14.539v-32.705l20.859,48.239c0,0,13.69-12.387,18.905-14.993
				c5.215-2.608,4.563,7.822,0.652,11.734c-3.911,3.911,1.956,35.852-1.955,39.111l1.303,19.556L2398.84,1988.414z"/>
			
				<linearGradient id="SVGID_00000183935970331283468780000016775765002380694679_" gradientUnits="userSpaceOnUse" x1="3188.0234" y1="2761.8967" x2="2942.083" y2="2215.3613">
				<stop  offset="0" style="stop-color:#FF9085"/>
				<stop  offset="1" style="stop-color:#FB6FBB"/>
			</linearGradient>
			<path style="fill:url(#SVGID_00000183935970331283468780000016775765002380694679_);" d="M2564.412,1797.418
				c16.222-39.668,51.042-62.481,69.097-74.312c42.722-27.991,70.072-22.881,168.18-37.808
				c130.75-19.894,146.4-38.745,190.344-23.467c57.723,20.068,87.874,72.465,101.69,96.476
				c69.656,121.051-11.782,182.578,9.126,423.71c8.539,98.479,30.433,184.057-22.164,234.669
				c-11.074,10.656-23.462,16.23-48.237,27.378c-98.257,44.211-186.352,36.59-239.885,31.289
				c-58.906-5.833-88.678-9.173-104.298-29.986c-24.949-33.245,0.734-75.498,5.215-148.624c3.217-52.5-8.72-94.103-32.593-177.306
				C2605.387,1926.007,2533.333,1873.418,2564.412,1797.418z"/>
			<g>
				<g>
					
						<linearGradient id="SVGID_00000103969321419166874730000002479285759143177912_" gradientUnits="userSpaceOnUse" x1="5985.1987" y1="995.7846" x2="6201.5264" y2="1267.9525" gradientTransform="matrix(0.9663 0.2576 -0.2576 0.9663 -2744.3408 -923.8408)">
						<stop  offset="0" style="stop-color:#FFC444"/>
						<stop  offset="0.9964" style="stop-color:#F36F56"/>
					</linearGradient>
					<path style="fill:url(#SVGID_00000103969321419166874730000002479285759143177912_);" d="M2783.266,1613.944
						c-5.952-21.207,4.454-40.846,6.748-45.078c9.603-17.717,12.064-20.137,16.645-23.205l6.37-3.929c0,0,0.369-0.148,0.758-0.287
						c4.087-1.455,18.018-1.878,20.84-1.275c9.016,1.925,18.615,38.654,15.875,90.581c0.374,1.979,0.734,3.975,1.083,5.987
						c1.42,8.201,2.548,16.239,3.42,24.098c0.834,7.517,11.494,7.345,19.042,6.863c30.637-1.956,45.63,0.652,46.934,5.214
						c2.443,8.551-33.897,36.505-78.769,42.793c-60.221,0.448-109.21-5.964-103.945-15.447c2.338-4.21,48.998-16.403,62.121-28.486
						c12.015-11.067,11.036-22.489,12.025-30.668C2808.77,1639.214,2787.647,1629.568,2783.266,1613.944z"/>
					<path style="fill:#26264F;" d="M2794.342,1526.981c0.054,16.087,7.634,33.268,11.496,36.029
						c0.498,0.357,3.305,2.574,5.826,6.365c0.344,0.516,0.646,1.12,0.917,1.901c3.524,10.137-12.595,22.067-9.483,26.607
						c2.257,3.292,13.212-1.111,14.515,1.733c1.227,2.675-7.877,8.217-6.483,11.422c1.052,2.42,6.655,0.206,10.188,3.913
						c1.761,1.846,1.245,3.309,3.111,8.954c1.055,3.192,2.531,6.684,3.675,8.627c5.56,9.446,21.306,12.896,24.337,9.116
						c0.843-1.054,0.118-1.939,0.981-5.474c0,0,0.798-3.276,3.078-7.064c3.257-5.412,11.12-9.283,19.054-14.996
						c14.692-10.58,18.686-19.599,19.884-22.646c0.427-1.085,0.691-1.904,0.882-2.495c3.821-11.857,3.838-29.274-1.493-39.985
						c-8.93-17.943-29.076-9.424-45.564-27.203c-19.026-20.512-7.694-48.548-18.019-51.645
						C2819.865,1466.726,2794.243,1497.235,2794.342,1526.981z"/>
					
						<linearGradient id="SVGID_00000139269742608851630240000012361245860110086800_" gradientUnits="userSpaceOnUse" x1="5958.3096" y1="935.2292" x2="6199.8462" y2="1239.1127" gradientTransform="matrix(0.9663 0.2576 -0.2576 0.9663 -2744.3408 -923.8408)">
						<stop  offset="0" style="stop-color:#FFC444"/>
						<stop  offset="0.9964" style="stop-color:#F36F56"/>
					</linearGradient>
					<path style="fill:url(#SVGID_00000139269742608851630240000012361245860110086800_);" d="M2808.88,1594.102
						c3.943-5.418,10.871-0.327,10.911,6.683c0.042,7.009-6.75,14.297-13.34,12.913
						C2799.862,1612.313,2803.574,1601.395,2808.88,1594.102z"/>
				</g>
				<path style="fill:#26264F;" d="M2812.078,1582.375l-9.147,11.899c0,0-9.861,14.578-15.618,6.592
					c-4.703-6.526-5.922-6.38-6.21-6.107c-0.054,0.052-0.069,0.13-0.083,0.126c-0.082-0.022,0.69-3.248,1.384-6.084
					c-2.435,3.495-5.791,9.166-7.823,16.795c-1.974,7.41-4.09,15.345,0.092,22.967c0.241,0.44,4.847,8.553,13.448,10.515
					c0,0,3.382,0.771,17.671-1.74c0,0-15.619-11.334-15.858-14.026c-0.647-7.321,9.507-11.278,17.045-26.287
					C2809.885,1591.237,2811.318,1585.988,2812.078,1582.375z"/>
			</g>
			
				<linearGradient id="SVGID_00000086688448526325046230000005386597094626396083_" gradientUnits="userSpaceOnUse" x1="2544.8171" y1="2019.0927" x2="2891.6072" y2="2350.2378">
				<stop  offset="0" style="stop-color:#FF9085"/>
				<stop  offset="1" style="stop-color:#FB6FBB"/>
			</linearGradient>
			<path style="opacity:0.3;fill:url(#SVGID_00000086688448526325046230000005386597094626396083_);" d="M2843.409,2406.256
				c-17.33-34.506,25.136-80.375-2.608-132.979c-23.562-44.677-66.365-34.668-86.045-75.616
				c-23.77-49.457,27.926-86.421,26.074-161.662c-2.213-89.948-79.608-179.987-125.156-172.09
				c-29.47,5.108-33.256,49.073-53.991,97.205c18.347,40.232,39.784,90.636,59.206,158.324
				c23.874,83.203,35.811,124.805,32.593,177.306c-4.481,73.126-30.165,115.379-5.215,148.624
				c15.619,20.813,45.392,24.153,104.298,29.986c53.533,5.3,141.628,12.921,239.885-31.289c12.437-5.596,21.748-9.788,29.342-13.923
				C2908.283,2453.194,2857.154,2433.626,2843.409,2406.256z"/>
			
				<linearGradient id="SVGID_00000018923632926325829330000017840039341866148237_" gradientUnits="userSpaceOnUse" x1="2971.0144" y1="2859.5515" x2="2725.0735" y2="2313.0146">
				<stop  offset="0" style="stop-color:#FF9085"/>
				<stop  offset="1" style="stop-color:#FB6FBB"/>
			</linearGradient>
			<path style="fill:url(#SVGID_00000018923632926325829330000017840039341866148237_);" d="M2392.973,1982.547
				c9.56-4.128,19.121-8.257,28.682-12.385c16.158,16.526,36.768,32.595,54.105,27.377c25.842-7.776,19.38-55.317,50.845-138.845
				c35.651-94.642,76.1-118.968,96.476-127.765c11.381-4.913,19.238-8.175,28.682-5.867c43.456,10.623,57.823,123.863,45.63,208.595
				c-6.87,47.74-20.34,141.348-97.127,185.781c-10.908,6.312-70.951,41.056-130.372,13.689
				C2419.129,2109.747,2387.761,2049.764,2392.973,1982.547z"/>
		</g>
	</g>
</g>
</svg>
